<svg xmlns="http://www.w3.org/2000/svg" viewBox="0 0 320 320" role="img" aria-labelledby="title desc">
  <title id="title">Product image placeholder</title>
  <desc id="desc">Sabjiwalah fresh product placeholder</desc>
  <defs>
    <linearGradient id="bg" x1="0" y1="0" x2="1" y2="1">
      <stop offset="0" stop-color="#f8fff1"/>
      <stop offset="1" stop-color="#e4f4dc"/>
    </linearGradient>
    <linearGradient id="leaf" x1="0" y1="0" x2="1" y2="1">
      <stop offset="0" stop-color="#40a94b"/>
      <stop offset="1" stop-color="#116f31"/>
    </linearGradient>
    <filter id="shadow" x="-20%" y="-20%" width="140%" height="140%">
      <feDropShadow dx="0" dy="12" stdDeviation="12" flood-color="#1d5c2c" flood-opacity=".16"/>
    </filter>
  </defs>
  <rect width="320" height="320" rx="28" fill="url(#bg)"/>
  <circle cx="160" cy="146" r="86" fill="#ffffff" opacity=".72"/>
  <g filter="url(#shadow)">
    <path d="M126 190c-27-30-26-72 3-100 25-24 65-26 94-8 7 39-7 78-38 101-19 14-40 17-59 7Z" fill="url(#leaf)"/>
    <path d="M104 210c43-74 87-103 135-126" fill="none" stroke="#ffffff" stroke-width="12" stroke-linecap="round"/>
    <path d="M142 111c14 11 22 24 23 40" fill="none" stroke="#dff5d8" stroke-width="7" stroke-linecap="round"/>
    <path d="M181 93c8 17 10 34 6 52" fill="none" stroke="#dff5d8" stroke-width="7" stroke-linecap="round"/>
  </g>
  <text x="160" y="254" text-anchor="middle" font-family="Inter, Arial, sans-serif" font-size="22" font-weight="800" fill="#31543a">Fresh pick</text>
</svg>
